<svg width="32" height="32" viewBox="0 0 32 32" fill="none" xmlns="http://www.w3.org/2000/svg">
<path d="M14.7757 4.17026C15.2389 3.09685 16.7609 3.09685 17.2241 4.17026L20.1308 10.9061C20.3269 11.3606 20.7587 11.6691 21.2523 11.7072L28.7065 12.2832C29.9025 12.3756 30.3777 13.877 29.4527 14.6407L23.8468 19.2691C23.4514 19.5956 23.2783 20.1198 23.4014 20.6176L25.1267 27.5887C25.4104 28.7351 24.1737 29.6572 23.156 29.058L16.6763 25.2434C16.2589 24.9976 15.7409 24.9976 15.3235 25.2434L8.84382 29.058C7.82608 29.6572 6.58938 28.7351 6.8731 27.5887L8.59835 20.6176C8.72154 20.1198 8.54837 19.5956 8.15296 19.2691L2.54711 14.6407C1.6221 13.877 2.09731 12.3756 3.29329 12.2832L10.7475 11.7072C11.241 11.6691 11.6728 11.3606 11.869 10.9061L14.7757 4.17026Z" fill="#F8C81E"/>
</svg>
